<svg width="32" height="32" viewBox="0 0 32 32" fill="none" xmlns="http://www.w3.org/2000/svg">
    <g clip-path="url(#clip0_3_276)">
        <path d="M24.3721 0H7.6279C3.41513 0 0 3.58172 0 8V24C0 28.4183 3.41513 32 7.6279 32H24.3721C28.5849 32 32 28.4183 32 24V8C32 3.58172 28.5849 0 24.3721 0Z" fill="white"/>
        <path d="M18.0727 22.6042C16.1636 21.8735 14.2 21.7611 12.4 22.267C11.1455 22.6042 9.94546 23.2787 8.85455 24.1218L8.0909 24.7963L7.87273 25.0211L8.36363 25.4707C8.41818 25.4707 8.41818 25.5269 8.47273 25.5831C8.58182 25.6956 8.69092 25.7518 8.85455 25.8642L9.18181 26.089L9.50909 25.808C9.56364 25.7518 9.67273 25.6394 9.78182 25.5831C10.7636 24.7401 11.8545 24.178 13 23.897C14.4727 23.5035 16.0545 23.5597 17.6364 24.178C18.9455 24.6839 21.6182 25.3021 24.8364 23.897L24.9455 23.8408L25.1091 23.6721C25.1091 23.6159 25.1636 23.6159 25.2182 23.5597C25.4909 23.2225 25.7636 22.8853 25.9818 22.4918L27.0727 20.7494L25.3273 21.7611C22.7636 23.2225 20.4182 23.5035 18.0727 22.6042Z" fill="#1C1C1C"/>
        <path d="M10.6 16.534C12.0727 16.1405 13.6546 16.1967 15.2364 16.815C16.9818 17.4895 21.4546 18.445 26.4727 13.7799L27.2909 12.9368L27.3455 12.8806L27.5637 12.6557L27.4546 12.3747C27.4 12.1499 27.2909 11.8689 27.1818 11.5878L26.9091 10.8009L26.3636 11.363C26.3091 11.4754 26.2 11.5316 26.0909 11.644C23.6909 14.1733 19.9818 16.7588 15.7273 15.185C13.8182 14.4543 11.8546 14.3419 10.0546 14.8478C8.3091 15.3536 6.78183 16.3091 5.36364 17.6581V17.6019L4.54546 18.5012C4.54546 18.5574 4.49093 18.5574 4.43638 18.6136L4.27274 18.7822L4.32728 19.007C4.38183 19.2881 4.49092 19.5691 4.54546 19.8501L4.87274 20.7494L5.41819 20.0187C5.47274 19.9063 5.58183 19.8501 5.63637 19.7377C6.78183 18.6698 8.36365 17.1522 10.6 16.534Z" fill="#1C1C1C"/>
        <path d="M5.3091 15.5223C6.56365 14.1733 7.98182 13.3302 9.50909 12.8806C10.9818 12.4871 12.5636 12.5433 14.1455 13.1616C19.0545 15.0164 23.3091 11.9813 25.1636 10.3513L25.8727 9.62062L26.1455 9.39578L25.9273 9.05856C25.7636 8.88994 25.6546 8.66511 25.4909 8.44029L25.1636 7.99063L24.7818 8.38408C24.7273 8.44029 24.6182 8.5527 24.5636 8.6089C22.2727 10.8571 18.7273 13.1616 14.6909 11.5878C12.7818 10.8572 10.8182 10.7447 9.01819 11.2506C7.87273 11.5878 6.78182 12.1499 5.69091 12.8806L4.54545 13.8361C4.43636 13.9485 4.38182 14.0047 4.27273 14.1171L4.16365 14.2295V14.3981C4.1091 14.7916 4.10909 15.185 4.05455 15.5223L4 16.9274L4.92728 15.9157C5.03637 15.8033 5.14547 15.6347 5.3091 15.5223Z" fill="#1C1C1C"/>
        <path d="M19.6545 26.4263L19.5454 26.7635L19.6545 26.4263C19.4909 26.37 19.3818 26.3138 19.2182 26.2576C17.3091 25.5269 15.3454 25.4145 13.5454 25.9204C13.1636 26.0328 12.7818 26.1452 12.4 26.3138L11.0909 26.9321L10.7636 27.1007L11.8546 27.4942C12.1818 27.6066 12.5091 27.719 12.8364 27.8314L13 27.8876L13.1636 27.8314C13.3273 27.7752 13.4909 27.6628 13.6545 27.6628C13.7636 27.6628 13.8727 27.6066 13.9818 27.5504C15.2909 27.2131 16.7091 27.2131 18.2364 27.719C18.4 27.7752 18.5091 27.8314 18.6727 27.8876L18.9455 28L19.1091 27.9438C19.4909 27.8314 19.9273 27.719 20.2545 27.5504L21.7818 26.9883L20.2 26.5949C20.0364 26.5387 19.8182 26.4825 19.6545 26.4263Z" fill="#1C1C1C"/>
        <path d="M28 14.7916L27.1818 15.6347C27.0727 15.7471 26.9636 15.8595 26.8546 15.9719C24.6182 18.1639 21.0182 20.5246 16.9818 18.9508C15.0727 18.2201 13.1091 18.1077 11.3091 18.6136C9.61819 19.1194 8.0909 20.0187 6.72727 21.3677L6.01818 22.1546L5.8 22.4356L6.01818 22.7728C6.18182 22.9977 6.29092 23.1663 6.40001 23.3911L6.72727 23.897L7.10909 23.3911C7.16364 23.3349 7.27272 23.2225 7.32727 23.1663C8.63636 21.7049 10.0545 20.8056 11.6909 20.356C13.1636 19.9625 14.7455 20.0187 16.3273 20.637C17.6909 21.1429 19.1091 21.3115 20.5273 21.1429C23.0364 20.8618 25.5455 19.4005 27.4 17.7705C27.5091 17.6581 27.6182 17.6019 27.7273 17.4895L27.8909 17.3208V17.1522C27.8909 16.815 27.9455 16.4216 27.9455 16.0843L28 14.7916Z" fill="#1C1C1C"/>
        <path d="M7.27272 9.62061L7.10909 9.28337L7.27272 9.62061C7.6 9.45199 7.98183 9.33957 8.3091 9.22716C9.78183 8.83372 11.3636 8.88993 12.9455 9.50819C13.9818 9.90164 15.0182 10.0703 16.1636 10.0703C18.4546 10.0703 20.7455 9.22717 22.8727 7.59719L23.6909 6.92271L23.9636 6.69789L23.4727 6.30444C23.3091 6.13582 23.0909 5.96721 22.8727 5.8548L22.5455 5.62997L22.2727 5.8548C22.1636 5.911 22.1091 6.02341 22 6.07962C19.1091 8.32786 16.2182 8.94613 13.4909 7.87822C11.5273 7.14754 9.56364 6.97892 7.6 7.59719C7.43636 7.65339 7.27273 7.70959 7.05455 7.7658L6.94547 7.82201L6.78182 7.99062C6.78182 8.04683 6.72728 8.04683 6.67274 8.10304C6.45456 8.44028 6.18182 8.72131 5.96364 9.05855L4.92728 10.6885L6.61819 9.78922C6.89092 9.78922 7.10909 9.67682 7.27272 9.62061Z" fill="#1C1C1C"/>
        <path d="M11.7455 5.79859L11.9091 5.85479C12.6182 6.13583 13.7091 6.41686 15.0727 6.41686C16.4909 6.41686 17.8546 6.07962 19.2182 5.51755L20.9091 4.67446L19.7636 4.28103C19.4364 4.16862 19.1091 4.05621 18.7273 4H18.5636L18.4 4.05619C18.2364 4.1124 18.0727 4.22482 17.9091 4.28103C16.2727 4.8993 14.6364 5.01171 13.0545 4.56206C12.8909 4.50585 12.7273 4.44964 12.5636 4.39343L12.4 4.33722L12.2364 4.39343C11.9091 4.50584 11.5818 4.61826 11.2546 4.78688L10 5.34894L11.3091 5.74238C11.4182 5.68617 11.5818 5.74238 11.7455 5.79859Z" fill="#1C1C1C"/>
    </g>
    <defs>
        <clipPath id="clip0_3_276">
            <rect width="32" height="32" rx="8" fill="white"/>
        </clipPath>
    </defs>
</svg>
